<?xml version="1.0" encoding="UTF-8"?>
<svg version="1.1" xmlns="http://www.w3.org/2000/svg" width="148" height="148">
<path d="M0 0 C48.84 0 97.68 0 148 0 C148 48.84 148 97.68 148 148 C99.16 148 50.32 148 0 148 C0 99.16 0 50.32 0 0 Z " fill="#F6F6F6" transform="translate(0,0)"/>
<path d="M0 0 C48.84 0 97.68 0 148 0 C148 48.84 148 97.68 148 148 C99.16 148 50.32 148 0 148 C0 99.16 0 50.32 0 0 Z M21.02734375 30.15625 C8.13719479 45.79440874 4.6388029 63.56840644 6.2734375 83.30078125 C8.51352234 100.94673261 17.82274269 116.78396952 31.515625 128.07421875 C40.72484157 134.74945278 49.88801028 138.6738692 61 141 C61.7734375 141.18691406 62.546875 141.37382812 63.34375 141.56640625 C81.82282108 144.58284285 99.50655974 139.79640182 114.6796875 129.11328125 C123.55840006 122.24509783 129.48629341 114.71236246 135 105 C135.51820313 104.17628906 136.03640625 103.35257812 136.5703125 102.50390625 C137.9732441 100.04685938 138.83717525 97.83477086 139.625 95.125 C139.86476562 94.32320313 140.10453125 93.52140625 140.3515625 92.6953125 C144.78264721 74.27694833 142.12829938 54.97051456 132.625 38.63671875 C122.78703069 23.15795725 107.99078752 11.43565968 90 7 C63.53379671 2.42614272 39.16803193 10.32722054 21.02734375 30.15625 Z " fill="#FDFDFD" transform="translate(0,0)"/>
<path d="M0 0 C11.02987484 10.39204005 17.23081864 22.52872485 20.3125 37.25 C20.59287109 38.41015625 20.59287109 38.41015625 20.87890625 39.59375 C23.89534285 58.07282108 19.10890182 75.75655974 8.42578125 90.9296875 C1.55759783 99.80840006 -5.97513754 105.73629341 -15.6875 111.25 C-16.51121094 111.76820313 -17.33492188 112.28640625 -18.18359375 112.8203125 C-20.64064062 114.2232441 -22.85272914 115.08717525 -25.5625 115.875 C-26.36429687 116.11476562 -27.16609375 116.35453125 -27.9921875 116.6015625 C-46.43337248 121.03813744 -65.63283197 118.33850862 -82.015625 108.91015625 C-97.59014322 99.08078374 -109.23922921 84.29193749 -113.6875 66.25 C-117.04477786 46.82342132 -113.89447928 28.39660637 -103.41015625 11.69140625 C-93.21382009 -2.75918354 -78.19593105 -13.80426449 -60.58984375 -17.1484375 C-38.04408687 -20.17636129 -17.24629813 -15.01414783 0 0 Z M-96.8828125 6.9296875 C-103.40347697 14.32685677 -108.41576986 23.65065912 -110.6875 33.25 C-110.88988281 34.09820312 -111.09226562 34.94640625 -111.30078125 35.8203125 C-115.09126533 53.92180792 -111.46176282 71.38815302 -101.93359375 87.125 C-91.31982812 101.89197827 -76.70048547 112.12059022 -58.8203125 115.84765625 C-56.42461384 116.11937287 -54.09771425 116.2299483 -51.6875 116.25 C-50.81996094 116.28738281 -49.95242187 116.32476562 -49.05859375 116.36328125 C-32.03324649 116.82342577 -16.4745976 111.56064921 -3.6875 100.25 C-2.87667969 99.63640625 -2.06585938 99.0228125 -1.23046875 98.390625 C6.60784442 91.79247505 11.61211028 82.65701482 15.3125 73.25 C15.83650391 72.02990234 15.83650391 72.02990234 16.37109375 70.78515625 C21.61934021 56.65191163 20.63650051 38.44521853 14.546875 24.765625 C14.13953125 23.93546875 13.7321875 23.1053125 13.3125 22.25 C12.86390625 21.31671875 12.4153125 20.3834375 11.953125 19.421875 C3.51280426 3.46047637 -10.18742203 -7.20162329 -27.0625 -13.1875 C-31.6144349 -14.55067839 -35.93949212 -15.54814384 -40.6875 -15.75 C-41.60144531 -15.78996094 -42.51539062 -15.82992188 -43.45703125 -15.87109375 C-64.33150601 -16.32663428 -82.64683699 -8.24754823 -96.8828125 6.9296875 Z " fill="#1C1C1C" transform="translate(120.6875,23.75)"/>
<path d="M0 0 C4.53120186 0.69537954 7.25657163 3.54353362 10.5625 6.5 C11.81945183 7.60124355 13.07727346 8.70149508 14.3359375 9.80078125 C15.26744629 10.61796631 15.26744629 10.61796631 16.21777344 11.45166016 C20.38858779 15.07512654 24.70806229 18.52194085 29 22 C35.06459024 26.92803453 41.09300162 31.89478817 47.0625 36.9375 C47.62308105 37.4104248 48.18366211 37.88334961 48.76123047 38.37060547 C50.90976159 40.19113676 53.00774775 42.00774775 55 44 C54.8125 46.0625 54.8125 46.0625 54 48 C53.01 48.33 52.02 48.66 51 49 C48.69440538 47.45282466 46.6273616 45.89150567 44.5 44.125 C43.88431152 43.62701904 43.26862305 43.12903809 42.63427734 42.6159668 C40.74815325 41.08686774 38.87372028 39.54425863 37 38 C35.87831089 37.08637123 34.7559549 36.17356036 33.6328125 35.26171875 C31.08079545 33.18364772 28.53672847 31.09668374 26 29 C25.071875 29.804375 24.14375 30.60875 23.1875 31.4375 C22.24003906 32.241875 22.24003906 32.241875 21.2734375 33.0625 C19.57892767 34.50661834 17.89888261 35.9677426 16.2265625 37.4375 C15.26492187 38.2625 14.30328125 39.0875 13.3125 39.9375 C12.40113281 40.73027344 11.48976563 41.52304688 10.55078125 42.33984375 C8 44 8 44 5.66796875 43.75390625 C5.11753906 43.50511719 4.56710938 43.25632813 4 43 C6.25769693 37.35575768 9.38344994 34.67900504 14.125 31.1875 C15.39855009 30.22280487 16.67199325 29.25796856 17.9453125 28.29296875 C18.95335938 27.53628906 19.96140625 26.77960938 21 26 C21.33 25.67 21.66 25.34 22 25 C21.10539062 24.31035156 20.21078125 23.62070313 19.2890625 22.91015625 C11.92530793 17.19901031 4.81758671 11.36203368 -2 5 C-1.125 1.125 -1.125 1.125 0 0 Z " fill="#080808" transform="translate(51,51)"/>
<path d="M0 0 C5.875 4.75 5.875 4.75 7 7 C7.07065617 9.04055005 7.08421976 11.08334257 7.0625 13.125 C7.05347656 14.22070312 7.04445313 15.31640625 7.03515625 16.4453125 C7.02355469 17.28835937 7.01195313 18.13140625 7 19 C8.32 19.33 9.64 19.66 11 20 C11.66 18.68 12.32 17.36 13 16 C12.53498083 20.74319553 11.95797979 24.19688313 9 28 C5.19529128 30.95921789 1.78471773 31.7525146 -3 32 C-8.53702328 31.04534081 -11.41622681 29.32160885 -15 25 C-16.31886422 21.04340734 -16.26518132 18.17660573 -16 14 C-15.01 13.34 -14.02 12.68 -13 12 C-12.731875 12.969375 -12.46375 13.93875 -12.1875 14.9375 C-11.795625 15.948125 -11.40375 16.95875 -11 18 C-10.01 18.33 -9.02 18.66 -8 19 C-8.01160156 18.01257813 -8.02320312 17.02515625 -8.03515625 16.0078125 C-8.04417969 14.72648437 -8.05320312 13.44515625 -8.0625 12.125 C-8.07410156 10.84882812 -8.08570312 9.57265625 -8.09765625 8.2578125 C-8 5 -8 5 -7 3 C-6.34 3 -5.68 3 -5 3 C-4.34 5.97 -3.68 8.94 -3 12 C-2.01 11.67 -1.02 11.34 0 11 C1.02703748 5.44506076 1.02703748 5.44506076 0 0 Z " fill="#060606" transform="translate(76,100)"/>
<path d="M0 0 C2.37948772 0.17625835 3.70225849 0.69719773 5.37890625 2.40234375 C6.62115486 3.90649092 7.81376056 5.45129851 9 7 C2.71709297 14.7094608 -3.62142139 22.36967528 -10 30 C-13.86142204 29.21616433 -16.01328244 27.57189568 -19 25 C-18.40706387 21.7671706 -17.41229024 19.98178458 -15.234375 17.5390625 C-14.67363281 16.90226562 -14.11289063 16.26546875 -13.53515625 15.609375 C-12.65150391 14.62710938 -12.65150391 14.62710938 -11.75 13.625 C-10.59846151 12.32596107 -9.44741332 11.02648734 -8.296875 9.7265625 C-7.74193359 9.10297852 -7.18699219 8.47939453 -6.61523438 7.83691406 C-4.35612083 5.26775289 -2.17476024 2.6407803 0 0 Z " fill="#040404" transform="translate(118,90)"/>
<path d="M0 0 C0.33 0 0.66 0 1 0 C0.98952637 0.57854736 0.97905273 1.15709473 0.96826172 1.75317383 C0.62833148 23.37747047 2.64905895 43.30299941 18.31738281 59.80834961 C34.88133913 76.46836649 52.17182981 79.96495521 75 81 C75 81.66 75 82.32 75 83 C51.86454675 83.75624363 33.57559198 78.35659444 16.35546875 62.41796875 C2.32616432 48.0164108 -2.28346167 30.5925216 -2.16796875 11.07421875 C-1.95260001 7.13246995 -1.17907646 3.75830622 0 0 Z " fill="#212121" transform="translate(8,59)"/>
<path d="M0 0 C0.52851562 0.2475 1.05703125 0.495 1.6015625 0.75 C-0.87948074 4.30975769 -3.51423096 6.59870925 -7.0234375 9.0625 C-11.76621751 12.59633608 -12.4310898 15.04264854 -13.3984375 20.75 C-14.3884375 21.41 -15.3784375 22.07 -16.3984375 22.75 C-17.2995636 24.83171404 -17.2995636 24.83171404 -17.8984375 27.1875 C-18.82353944 30.52998142 -19.61159417 32.59713051 -22.3984375 34.75 C-24.39786796 35.23373318 -26.39854344 35.71425941 -28.41015625 36.14453125 C-31.25381052 37.01047705 -33.1124786 38.89651981 -35.3984375 40.75 C-38.2109375 41 -38.2109375 41 -40.3984375 40.75 C-40.3984375 39.76 -40.3984375 38.77 -40.3984375 37.75 C-39.0784375 38.08 -37.7584375 38.41 -36.3984375 38.75 C-36.3159375 38.151875 -36.2334375 37.55375 -36.1484375 36.9375 C-35.14001705 33.99627368 -34.11436477 33.25090718 -31.3984375 31.75 C-29.07455803 31.35612212 -26.74050001 31.01513915 -24.3984375 30.75 C-22.5410131 28.8925756 -22.95574914 25.62576406 -22.7109375 23.125 C-21.45431359 14.37287994 -19.03993253 11.58629488 -12.25390625 6.30078125 C-11.09827105 5.44438614 -9.93805045 4.59414572 -8.7734375 3.75 C-8.21100342 3.33903076 -7.64856934 2.92806152 -7.0690918 2.50463867 C-2.96605792 -0.30916565 -2.96605792 -0.30916565 0 0 Z " fill="#222222" transform="translate(67.3984375,73.25)"/>
<path d="M0 0 C3.87917443 0.72555987 5.27619304 2.74761253 7.83984375 5.68359375 C8.69964844 6.64652344 9.55945313 7.60945313 10.4453125 8.6015625 C12.46363525 11.24860172 13.75439051 13.30643162 14.65234375 16.49609375 C14.32234375 17.15609375 13.99234375 17.81609375 13.65234375 18.49609375 C7.53041492 19.00559108 3.96299266 17.54506741 -1.28515625 14.49609375 C-1.96900391 14.11453125 -2.65285156 13.73296875 -3.35742188 13.33984375 C-5.0282725 12.40510214 -6.68905601 11.4524038 -8.34765625 10.49609375 C-7.40599475 5.78778624 -5.02382229 1.06160637 0 0 Z " fill="#0B0B0B" transform="translate(30.34765625,33.50390625)"/>
<path d="M0 0 C1.41404314 3.80024093 2.34892324 6.92922882 2 11 C-0.63377196 13.63377196 -7.6642667 12.99357448 -11.265625 13.0625 C-14.17778408 13.0625 -17.08820276 13.04434209 -20 13 C-20.66 11.35 -21.32 9.7 -22 8 C-18.68188538 5.97372052 -15.34617237 3.97956744 -12 2 C-10.9275 1.360625 -9.855 0.72125 -8.75 0.0625 C-5.41475038 -1.22611917 -3.41628662 -0.89474173 0 0 Z " fill="#0C0C0C" transform="translate(131,49)"/>
<path d="M0 0 C1.9140625 2.01171875 1.9140625 2.01171875 3.625 4.6875 C4.19476563 5.55761719 4.76453125 6.42773438 5.3515625 7.32421875 C6.16753906 8.64873047 6.16753906 8.64873047 7 10 C7.56460938 10.87269531 8.12921875 11.74539062 8.7109375 12.64453125 C10 15 10 15 10 18 C5.8242439 18.99147978 3.70845366 19.34990699 -0.203125 17.41796875 C-1.20859375 16.68191406 -2.2140625 15.94585937 -3.25 15.1875 C-4.26578125 14.45917969 -5.2815625 13.73085938 -6.328125 12.98046875 C-7.20984375 12.32691406 -8.0915625 11.67335938 -9 11 C-9.99 10.34 -10.98 9.68 -12 9 C-11.74956884 5.61917938 -10.7185873 4.7185873 -8.25 2.25 C-4.86204632 -0.0955064 -3.94196883 -0.6773352 0 0 Z " fill="#0A0A0A" transform="translate(46,24)"/>
<path d="M0 0 C3.99926453 1.95519599 4.64425603 4.49061694 6.06640625 8.5859375 C7.12373114 12.53845045 7.54919494 16.29377163 7.8125 20.375 C5.5625 21.06640625 5.5625 21.06640625 2.8125 21.375 C-2.30368525 18.34210988 -6.75880656 13.19660015 -10.1875 8.375 C-10.1875 7.055 -10.1875 5.735 -10.1875 4.375 C-6.61987685 2.02036872 -4.25689171 0.50081079 0 0 Z " fill="#080808" transform="translate(59.1875,14.625)"/>
<path d="M0 0 C4.99911924 0.47610659 7.97832683 2.03162219 12 5 C11.13758874 9.57831649 8.44432997 12.10676171 5.25 15.3125 C4.7240625 15.87517578 4.198125 16.43785156 3.65625 17.01757812 C2.078125 18.61328125 2.078125 18.61328125 -1 21 C-3.828125 20.98046875 -3.828125 20.98046875 -6 20 C-7.58477131 16.83045737 -6.20516998 14.45425187 -5.25 11.125 C-4.73179688 9.27261719 -4.73179688 9.27261719 -4.203125 7.3828125 C-3.12309792 4.34611299 -2.09912839 2.40072729 0 0 Z " fill="#060606" transform="translate(88,15)"/>
<path d="M0 0 C3.89599539 1.57695051 5.29041218 3.56061827 7.625 7.0625 C7.67578125 9.02734375 7.67578125 9.02734375 6.625 11.0625 C4.38511907 12.52213102 2.33104512 13.67550507 -0.0625 14.8125 C-0.98192383 15.28623047 -0.98192383 15.28623047 -1.91992188 15.76953125 C-5.89669276 17.71785379 -8.9662215 18.41466049 -13.375 18.0625 C-14.140625 16.41015625 -14.140625 16.41015625 -14.375 14.0625 C-12.609375 11.37109375 -12.609375 11.37109375 -10.125 8.5 C-9.31546875 7.54996094 -8.5059375 6.59992187 -7.671875 5.62109375 C-2.68929512 0.07077092 -2.68929512 0.07077092 0 0 Z " fill="#060606" transform="translate(118.375,33.9375)"/>
<path d="M0 0 C4.02396312 0.64017595 5.79025037 2.68424453 8.75 5.4375 C8.671875 7.63671875 8.671875 7.63671875 7.75 10.4375 C5.50319566 12.28729048 3.45969195 13.75377038 1 15.25 C0.37867187 15.65669922 -0.24265625 16.06339844 -0.8828125 16.48242188 C-4.4480587 18.72010277 -7.01469398 19.97903722 -11.25 19.4375 C-11.98828125 17.8515625 -11.98828125 17.8515625 -12.25 15.4375 C-11.06783714 13.07317427 -9.88209206 11.00260911 -8.4375 8.8125 C-8.06818359 8.22726563 -7.69886719 7.64203125 -7.31835938 7.0390625 C-3.22229863 0.62655807 -3.22229863 0.62655807 0 0 Z " fill="#060606" transform="translate(105.25,23.5625)"/>
<path d="M0 0 C1.48306641 0.02126953 1.48306641 0.02126953 2.99609375 0.04296875 C3.98738281 0.04941406 4.97867188 0.05585938 6 0.0625 C8.43359375 0.23046875 8.43359375 0.23046875 9.43359375 1.23046875 C9.38548632 8.6390123 8.18934006 15.36710057 5.43359375 22.23046875 C3.78359375 22.23046875 2.13359375 22.23046875 0.43359375 22.23046875 C-0.40918055 19.83759171 -1.24077627 17.44175856 -2.06640625 15.04296875 C-2.30488281 14.36943359 -2.54335937 13.69589844 -2.7890625 13.00195312 C-4.0421796 9.33211019 -5.07800759 6.11721782 -4.56640625 2.23046875 C-2.56640625 0.23046875 -2.56640625 0.23046875 0 0 Z " fill="#060606" transform="translate(71.56640625,11.76953125)"/>
<path d="M0 0 C-0.11382653 1.95901454 -0.24141125 3.9172338 -0.375 5.875 C-0.44460937 6.96554688 -0.51421875 8.05609375 -0.5859375 9.1796875 C-1 12 -1 12 -3 14 C-4.670625 14.2165625 -4.670625 14.2165625 -6.375 14.4375 C-9.98777726 14.99810337 -11.46013589 15.46013589 -14 18 C-14.33 18.99 -14.66 19.98 -15 21 C-15.99 20.67 -16.98 20.34 -18 20 C-17.34 20 -16.68 20 -16 20 C-16 19.01 -16 18.02 -16 17 C-16.99 17.66 -17.98 18.32 -19 19 C-19.99 19 -20.98 19 -22 19 C-21.9375 16.8125 -21.9375 16.8125 -21 14 C-19.4453125 12.80078125 -19.4453125 12.80078125 -17.5625 11.625 C-13.56587069 9.06618246 -13.12399569 6.58244398 -12 2 C-8.68445947 -0.93297816 -4.18322577 -0.13944086 0 0 Z " fill="#E6E6E6" transform="translate(46,91)"/>
<path d="M0 0 C3.5638587 1.09077198 6.7876483 2.6968057 10.08203125 4.41015625 C11.04979492 4.90418945 11.04979492 4.90418945 12.03710938 5.40820312 C13.61738353 6.2158988 15.1938523 7.03103238 16.76953125 7.84765625 C16.81225225 9.5137753 16.81016957 11.1814851 16.76953125 12.84765625 C16.43953125 13.17765625 16.10953125 13.50765625 15.76953125 13.84765625 C12.81850262 13.78253827 9.90113655 13.655095 6.95703125 13.47265625 C6.13654297 13.42882813 5.31605469 13.385 4.47070312 13.33984375 C0.76875974 13.12367187 -2.64378963 12.83774757 -6.23046875 11.84765625 C-6.14346825 10.22164684 -6.03529065 8.59675947 -5.91796875 6.97265625 C-5.85996094 6.06773438 -5.80195313 5.1628125 -5.7421875 4.23046875 C-5.01604684 0.84920308 -3.45722895 -0.23613298 0 0 Z " fill="#060606" transform="translate(22.23046875,48.15234375)"/>
<path d="M0 0 C5.4350945 0.13847375 10.79143472 1.26911443 16.125 2.25 C16.455 3.9 16.785 5.55 17.125 7.25 C11.22560063 11.5762262 3.32693066 12.80399467 -3.875 12.25 C-5.46394072 10.66105928 -5.04498411 9.00198576 -5.0625 6.8125 C-5.07667969 6.00941406 -5.09085938 5.20632812 -5.10546875 4.37890625 C-4.72153553 0.83240448 -3.41358474 0.29683346 0 0 Z " fill="#050505" transform="translate(18.875,64.75)"/>
<path d="M0 0 C1 1 1 1 1.1328125 3.25 C1.13023437 4.1575 1.12765625 5.065 1.125 6 C1.12886719 7.36125 1.12886719 7.36125 1.1328125 8.75 C1 11 1 11 0 12 C-6.46755942 11.64069114 -13.38773887 10.35354795 -19 7 C-19.81640625 4.359375 -19.81640625 4.359375 -20 2 C-13.26899933 0.23449163 -6.96874933 -0.5351004 0 0 Z " fill="#070707" transform="translate(133,66)"/>
<path d="M0 0 C-3.60095621 2.31205306 -7.09077979 3.84248337 -11.125 5.25 C-28.40677203 11.82797179 -40.09397177 23.58576449 -48 40 C-50.22557549 45.24987668 -51.39817888 50.34288146 -52 56 C-52.99 55.34 -53.98 54.68 -55 54 C-53.91253009 38.05044137 -43.2560703 23.46796286 -31.84375 13.02734375 C-24.42682762 6.91375737 -10.05526441 -3.25449406 0 0 Z " fill="#272727" transform="translate(62,8)"/>
<path d="M0 0 C1.0725 0.103125 2.145 0.20625 3.25 0.3125 C-0.77668293 9.40432619 -9.13549691 17.01311648 -15.75 24.3125 C-17.75 23.3125 -17.75 23.3125 -18.6875 21.125 C-18.76461776 17.654701 -17.60678214 16.06957875 -15.296875 13.5390625 C-12.94504204 11.67422526 -10.68570766 11.44904454 -7.75 11.3125 C-7.87375 9.9821875 -7.87375 9.9821875 -8 8.625 C-7.57630566 3.01104998 -5.69168017 0.47430668 0 0 Z " fill="#0F0F0F" transform="translate(113.75,87.6875)"/>
<path d="M0 0 C0.66 0.66 1.32 1.32 2 2 C3.31747324 2.69748583 4.64914193 3.36959957 6 4 C5.3503125 5.0209375 5.3503125 5.0209375 4.6875 6.0625 C3.40857169 8.28878261 2.4033725 10.33195381 1.4375 12.6875 C0 16 0 16 -2 18 C-3.99129777 18.45701916 -5.98282417 18.9131231 -7.9765625 19.359375 C-10.82561872 20.2613928 -12.70014231 22.13525052 -15 24 C-17.8125 24.25 -17.8125 24.25 -20 24 C-20 23.01 -20 22.02 -20 21 C-18.68 21.33 -17.36 21.66 -16 22 C-15.9175 21.401875 -15.835 20.80375 -15.75 20.1875 C-14.74157955 17.24627368 -13.71592727 16.50090718 -11 15 C-8.67612053 14.60612212 -6.34206251 14.26513915 -4 14 C-2.00022142 12.00022142 -2.56467193 8.15670096 -2.37890625 5.4453125 C-2 3 -2 3 0 0 Z " fill="#0A0A0A" transform="translate(47,90)"/>
<path d="M0 0 C1.01707031 0.40412109 1.01707031 0.40412109 2.0546875 0.81640625 C-1.59873932 5.48467386 -5.58885601 9.46017423 -10.0703125 13.31640625 C-10.5849707 13.7738623 -11.09962891 14.23131836 -11.62988281 14.70263672 C-13.140625 15.97265625 -13.140625 15.97265625 -15.9453125 17.81640625 C-18.3125 17.59765625 -18.3125 17.59765625 -19.9453125 16.81640625 C-17.69374334 11.28609223 -14.66688244 8.4290637 -10.0703125 4.87890625 C-9.45800781 4.37294922 -8.84570312 3.86699219 -8.21484375 3.34570312 C-3.66092006 -0.22820059 -3.66092006 -0.22820059 0 0 Z " fill="#101010" transform="translate(74.9453125,77.18359375)"/>
<path d="M0 0 C2.64 1.98 5.28 3.96 8 6 C4.0252438 10.23397943 -0.5861938 13.35582082 -5.3203125 16.68359375 C-8.08186677 19.07076822 -9.1432793 20.48509796 -10 24 C-9.67 24.66 -9.34 25.32 -9 26 C-9.99 26 -10.98 26 -12 26 C-12.48519653 22.33318691 -12.28030741 19.48630471 -11 16 C-7.31290699 11.6720875 -2.56474979 8.33944143 2 5 C1.34 4.34 0.68 3.68 0 3 C0 2.01 0 1.02 0 0 Z " fill="#D3D3D3" transform="translate(66,70)"/>
<path d="M0 0 C-0.33 1.32 -0.66 2.64 -1 4 C-3.31 4.33 -5.62 4.66 -8 5 C-8.061875 6.0725 -8.12375 7.145 -8.1875 8.25 C-9 12 -9 12 -11.25 14.4375 C-14.1811251 16.10291199 -15.6946094 16.37775893 -19 16 C-19 16.99 -19 17.98 -19 19 C-19.66 19 -20.32 19 -21 19 C-20.9375 16.8125 -20.9375 16.8125 -20 14 C-18.4453125 12.80078125 -18.4453125 12.80078125 -16.5625 11.625 C-12.56587069 9.06618246 -12.12399569 6.58244398 -11 2 C-7.78074654 -0.74232702 -4.05829301 -0.15608819 0 0 Z " fill="#131313" transform="translate(45,91)"/>
<path d="M0 0 C2.54646138 0.5105529 4.65425884 1.28770613 7.046875 2.33984375 C19.05430936 7.61453813 31.00330699 8.41072108 44 9 C44 9.66 44 10.32 44 11 C28.81130668 11.49648271 15.75199578 10.07973116 2 3 C1.34 2.67 0.68 2.34 0 2 C0 1.34 0 0.68 0 0 Z " fill="#121212" transform="translate(39,131)"/>
<path d="M0 0 C0.99 0.33 1.98 0.66 3 1 C-0.99676318 5.05789914 -5.12915634 8.94796935 -9.3125 12.8125 C-9.95767578 13.40998047 -10.60285156 14.00746094 -11.26757812 14.62304688 C-12.84423492 16.08291428 -14.42200338 17.54158093 -16 19 C-17.32 18.34 -18.64 17.68 -20 17 C-16.03569558 12.88263364 -11.81340941 9.22253888 -7.375 5.625 C-6.70726563 5.06683594 -6.03953125 4.50867187 -5.3515625 3.93359375 C-4.70703125 3.41152344 -4.0625 2.88945313 -3.3984375 2.3515625 C-2.52711182 1.63734131 -2.52711182 1.63734131 -1.63818359 0.90869141 C-1.09758301 0.60882324 -0.55698242 0.30895508 0 0 Z " fill="#151515" transform="translate(100,55)"/>
<path d="M0 0 C-4.04512318 4.26720838 -8.4387896 7.83260052 -13.125 11.375 C-13.84042969 11.93316406 -14.55585937 12.49132812 -15.29296875 13.06640625 C-15.98261719 13.58847656 -16.67226562 14.11054687 -17.3828125 14.6484375 C-18.00559082 15.12458496 -18.62836914 15.60073242 -19.27001953 16.09130859 C-19.84091309 16.39117676 -20.41180664 16.69104492 -21 17 C-21.99 16.67 -22.98 16.34 -24 16 C-21.80080563 10.62443516 -17.22145187 8.33117834 -12.5625 5.1875 C-11.69044922 4.57712891 -10.81839844 3.96675781 -9.91992188 3.33789062 C-9.08138672 2.76619141 -8.24285156 2.19449219 -7.37890625 1.60546875 C-6.6113501 1.08106201 -5.84379395 0.55665527 -5.05297852 0.01635742 C-3 -1 -3 -1 0 0 Z " fill="#1A1A1A" transform="translate(99,52)"/>
<path d="M0 0 C5.88903637 5.38051234 7.21280141 14.36326885 8 22 C8.21447102 27.66614446 8.11959267 33.33263628 8 39 C7.01 39.495 7.01 39.495 6 40 C5.96036133 39.30028076 5.92072266 38.60056152 5.87988281 37.87963867 C5.68699201 34.6476521 5.46863575 31.41784318 5.25 28.1875 C5.188125 27.08728516 5.12625 25.98707031 5.0625 24.85351562 C4.58809309 18.15251803 3.44111866 12.53653516 0.83105469 6.33325195 C0 4 0 4 0 0 Z " fill="#101010" transform="translate(134,44)"/>
<path d="M0 0 C2.64427544 4.53304361 2.00272213 8.00296329 1 13 C-0.7871767 19.34755864 -3.97774049 25.17050339 -7 31 C-7.99 31 -8.98 31 -10 31 C-8.9299762 28.24777531 -7.79565475 25.55521591 -6.5625 22.87109375 C-3.13315738 15.33511334 -0.88041654 8.28805911 0 0 Z " fill="#252525" transform="translate(139,80)"/>
<path d="M0 0 C0.66 0.33 1.32 0.66 2 1 C-1.61836815 6.65370024 -5.45396035 10.2430054 -11 14 C-10.67 15.32 -10.34 16.64 -10 18 C-12.64 16.02 -15.28 14.04 -18 12 C-17.67 11.01 -17.34 10.02 -17 9 C-16.67 9.66 -16.34 10.32 -16 11 C-12.19866558 9.32076975 -9.02917298 6.88537166 -5.75 4.375 C-5.19570312 3.95476563 -4.64140625 3.53453125 -4.0703125 3.1015625 C-2.71133337 2.07061281 -1.35536165 1.03570089 0 0 Z " fill="#DCDCDC" transform="translate(92,57)"/>
<path d="M0 0 C0.33 0 0.66 0 1 0 C0.99214478 0.88353149 0.99214478 0.88353149 0.98413086 1.78491211 C0.96310197 4.50243017 0.95025854 7.21993101 0.9375 9.9375 C0.92912109 10.86369141 0.92074219 11.78988281 0.91210938 12.74414062 C0.89162214 18.58300303 1.24570213 24.20913053 2 30 C1.34 30 0.68 30 0 30 C-2.72771995 19.94153269 -3.13936062 10.00671198 0 0 Z " fill="#0A0A0A" transform="translate(8,59)"/>
<path d="M0 0 C-0.33 0.66 -0.66 1.32 -1 2 C-2.093125 1.83628906 -3.18625 1.67257812 -4.3125 1.50390625 C-9.54454258 0.84990093 -14.73493662 0.89029598 -20 0.9375 C-20.96550781 0.94201172 -21.93101563 0.94652344 -22.92578125 0.95117188 C-25.28392089 0.96284583 -27.64192602 0.97921979 -30 1 C-21.60657478 -4.59561681 -9.23760171 -2.50511233 0 0 Z " fill="#0A0A0A" transform="translate(89,8)"/>
<path d="M0 0 C2 1 2 1 3 3 C-2.72581414 4.93548647 -7.87467462 6.6250332 -14 6 C-14.99 5.34 -15.98 4.68 -17 4 C-15.78763672 3.81824219 -15.78763672 3.81824219 -14.55078125 3.6328125 C-13.48214844 3.46523437 -12.41351563 3.29765625 -11.3125 3.125 C-10.25675781 2.96257812 -9.20101562 2.80015625 -8.11328125 2.6328125 C-5.00136449 2.10111833 -5.00136449 2.10111833 -2.23046875 0.8671875 C-1.49441406 0.58101562 -0.75835937 0.29484375 0 0 Z " fill="#2F2F2F" transform="translate(97,135)"/>
<path d="M0 0 C2 3 2 3 1.5390625 6.35546875 C1.23742187 7.62003906 0.93578125 8.88460937 0.625 10.1875 C0.32851562 11.45980469 0.03203125 12.73210938 -0.2734375 14.04296875 C-0.51320313 15.01878906 -0.75296875 15.99460937 -1 17 C-1.99 16.34 -2.98 15.68 -4 15 C-3.43179252 9.54520815 -2.05362055 5.08940744 0 0 Z " fill="#3C3C3C" transform="translate(11,47)"/>
<path d="M0 0 C-8.3125 5.225 -8.3125 5.225 -12.8125 4.625 C-13.534375 4.41875 -14.25625 4.2125 -15 4 C-12.83900627 1.83900627 -11.4789582 1.28436284 -8.625 0.3125 C-7.46871094 -0.09548828 -7.46871094 -0.09548828 -6.2890625 -0.51171875 C-3.79944692 -1.04278009 -2.38446982 -0.81115526 0 0 Z " fill="#303030" transform="translate(62,8)"/>
<path d="M0 0 C5.45479185 0.56820748 9.91059256 1.94637945 15 4 C14.34 4.66 13.68 5.32 13 6 C9.41411676 5.61233695 6.30012079 4.41433748 3 3 C3 2.34 3 1.68 3 1 C2.01 0.67 1.02 0.34 0 0 Z " fill="#2F2F2F" transform="translate(86,7)"/>
<path d="M0 0 C0.66 0.33 1.32 0.66 2 1 C1 4 1 4 -2 6 C-2.33 6.99 -2.66 7.98 -3 9 C-3.99 8.67 -4.98 8.34 -6 8 C-5.34 8 -4.68 8 -4 8 C-4 7.01 -4 6.02 -4 5 C-5.98 5.99 -5.98 5.99 -8 7 C-8 6.01 -8 5.02 -8 4 C-6.576875 3.566875 -6.576875 3.566875 -5.125 3.125 C-1.94788422 2.23174891 -1.94788422 2.23174891 0 0 Z " fill="#CECECE" transform="translate(34,103)"/>
<path d="M0 0 C4.56454251 0.54339792 7.9728176 1.79463821 12 4 C11.01 4.66 10.02 5.32 9 6 C6.03 4.35 3.06 2.7 0 1 C0 0.67 0 0.34 0 0 Z " fill="#181818" transform="translate(99,12)"/>
<path d="M0 0 C0.33 0.66 0.66 1.32 1 2 C0.00390625 4.3828125 0.00390625 4.3828125 -1.4375 7.125 C-1.91058594 8.03507812 -2.38367188 8.94515625 -2.87109375 9.8828125 C-3.24363281 10.58148438 -3.61617187 11.28015625 -4 12 C-4.33 12 -4.66 12 -5 12 C-4.58525633 6.71201818 -3.64775386 3.88309282 0 0 Z " fill="#0F0F0F" transform="translate(17,38)"/>
<path d="M0 0 C-1.45264038 0.8638129 -2.9123163 1.71580454 -4.375 2.5625 C-5.59316406 3.27599609 -5.59316406 3.27599609 -6.8359375 4.00390625 C-7.55007812 4.33261719 -8.26421875 4.66132813 -9 5 C-9.66 4.67 -10.32 4.34 -11 4 C-4.45754717 -1.33726415 -4.45754717 -1.33726415 0 0 Z " fill="#0F0F0F" transform="translate(49,13)"/>
<path d="M0 0 C0.66 0.33 1.32 0.66 2 1 C2 1.66 2 2.32 2 3 C0.25 4.2890625 0.25 4.2890625 -2 5.625 C-2.7425 6.07101563 -3.485 6.51703125 -4.25 6.9765625 C-4.8275 7.31429688 -5.405 7.65203125 -6 8 C-4.73058503 4.08597051 -3.48832306 2.20927127 0 0 Z " fill="#1D1D1D" transform="translate(37,16)"/>
<path d="M0 0 C0.66 0.33 1.32 0.66 2 1 C1.34 2.32 0.68 3.64 0 5 C-0.99 5 -1.98 5 -3 5 C-3 5.99 -3 6.98 -3 8 C-3.66 8 -4.32 8 -5 8 C-4.64950425 4.75791433 -4.43778819 3.38472296 -1.9375 1.1875 C-1.298125 0.795625 -0.65875 0.40375 0 0 Z " fill="#1C1C1C" transform="translate(29,102)"/>
<path d="M0 0 C0 3.93169105 -1.39419615 5.16427228 -4 8 C-4.66 8 -5.32 8 -6 8 C-4.55746343 4.63408134 -2.66735273 2.48952921 0 0 Z " fill="#1C1C1C" transform="translate(22,31)"/>
<path d="M0 0 C0.66 0.33 1.32 0.66 2 1 C0.95125002 3.62187494 0.35068687 4.79371361 -2.125 6.25 C-2.74375 6.4975 -3.3625 6.745 -4 7 C-2.79618552 4.50638429 -1.54571278 2.31856917 0 0 Z " fill="#ECECEC" transform="translate(95,55)"/>
</svg>
